PathFileType	4	(X/Y/Z)	E:\3-PhD\Data\MocapData\ElaboratedData\015\pre\dynamicElaborations\RunA1\RunA1.trc
DataRate	CameraRate	NumFrames	NumMarkers	Units	OrigDataRate	DataStartFrame
200	200	5	61	mm	200	363
Frame#	Time	FHD			LBHD			RBHD			C7			T10			CLAV			LSHO			LUUPA			LMUPA			LDUPA			LLEP			LMEP			LRAD			LUL			LRFIN			RSHO			RUPA1			RMUPA			RDUPA			RLEP			RMEP			RRAD			RUL			RUFIN			LASI			RASI			USACR			LSACR			RSACR			LTHI1			LTHI2			LTHI3			LTHI4			LLFC			LMFC			LTIB1			LTIB2			LTIB3			LTIB4			LLMAL			LMMAL			LHEE			LMT1			LMT5			LMT2			RTHI			RTHI2			RTHI3			RTHI4			RLFC			RMFC			RTIB1			RTIB2			RTIB3			RTIB4			RLMAL			RMMAL			RHEE			RMT1			RMT2			RMT5		
		X1	Y1	Z1	X2	Y2	Z2	X3	Y3	Z3	X4	Y4	Z4	X5	Y5	Z5	X6	Y6	Z6	X7	Y7	Z7	X8	Y8	Z8	X9	Y9	Z9	X10	Y10	Z10	X11	Y11	Z11	X12	Y12	Z12	X13	Y13	Z13	X14	Y14	Z14	X15	Y15	Z15	X16	Y16	Z16	X17	Y17	Z17	X18	Y18	Z18	X19	Y19	Z19	X20	Y20	Z20	X21	Y21	Z21	X22	Y22	Z22	X23	Y23	Z23	X24	Y24	Z24	X25	Y25	Z25	X26	Y26	Z26	X27	Y27	Z27	X28	Y28	Z28	X29	Y29	Z29	X30	Y30	Z30	X31	Y31	Z31	X32	Y32	Z32	X33	Y33	Z33	X34	Y34	Z34	X35	Y35	Z35	X36	Y36	Z36	X37	Y37	Z37	X38	Y38	Z38	X39	Y39	Z39	X40	Y40	Z40	X41	Y41	Z41	X42	Y42	Z42	X43	Y43	Z43	X44	Y44	Z44	X45	Y45	Z45	X46	Y46	Z46	X47	Y47	Z47	X48	Y48	Z48	X49	Y49	Z49	X50	Y50	Z50	X51	Y51	Z51	X52	Y52	Z52	X53	Y53	Z53	X54	Y54	Z54	X55	Y55	Z55	X56	Y56	Z56	X57	Y57	Z57	X58	Y58	Z58	X59	Y59	Z59	X60	Y60	Z60	X61	Y61	Z61	

387	1.930000	-2825.742972	1471.992531	156.737015	-2954.816861	1534.172101	144.824235	-2965.830531	1535.664472	271.902066	-3101.579379	1450.793698	211.961188	-3297.968343	1182.624629	233.005434	-3013.686859	1309.108036	195.126731	-3050.917897	1393.159068	16.473397	-3123.907845	1215.075136	-58.791803	-3111.747367	1174.047316	-35.022461	-3149.040103	1154.398483	-77.223038	-3202.817824	1089.530231	-91.823063	-3246.150996	1086.428779	-2.929009	-3035.243217	927.607954	25.079860	-3020.379268	990.607451	59.394258	-2940.211767	957.253315	77.123074	-3041.074543	1386.179942	387.772677	-3134.913160	1281.802830	511.239734	-3123.853048	1234.694769	510.464655	-3167.614652	1234.261986	552.687168	-3217.256694	1146.175453	597.566199	-3278.692177	1143.783307	540.163168	-3103.984474	934.136002	490.562971	-3124.355879	894.448880	554.310947	-3034.636830	890.450556	504.465696	-3230.284990	993.630572	84.954436	-3193.332619	975.837780	327.809279	-3361.252501	1078.150896	243.889001	-3380.527177	1048.200830	220.353840	-3369.220782	1049.318553	275.416652	-3274.528618	690.890665	24.860024	-3220.001708	626.175935	17.221271	-3173.843861	641.256367	13.890761	-3221.648705	569.985433	40.588546	-3197.333235	483.569317	52.931353	-3183.091673	486.653456	177.665988	-3183.868746	317.929231	96.715699	-3246.946924	288.259283	45.399487	-3213.318698	276.647533	70.797423	-3243.399709	203.515122	107.496099	-3347.095081	95.609463	97.237352	-3329.239182	115.817161	184.193336	-3422.759246	61.318510	149.068087	-3209.471276	57.256219	163.893941	-3246.486960	22.990457	64.001506	-3208.532577	52.416823	115.825125	-3187.884524	786.764248	401.720502	-3137.411695	746.916835	389.672473	-3115.369813	757.402902	363.604764	-3138.988850	662.602378	395.201901	-3162.468113	493.186969	357.233321	-3155.541846	483.646847	225.180308	-3348.168169	434.422307	303.256311	-3424.961943	501.152121	345.716881	-3426.522983	458.267607	327.330394	-3476.142872	450.599776	293.772895	-3544.804866	496.751097	323.445244	-3532.397168	499.360291	240.531770	-3594.962801	580.944496	278.350552	-3598.190878	358.597533	245.189006	-3599.280601	359.777843	288.387681	-3632.846928	397.726393	340.864393	
388	1.935000	-2801.312522	1470.784587	157.878272	-2930.648033	1532.367622	145.350410	-2942.401725	1533.845614	272.357447	-3078.342862	1448.088068	210.853850	-3273.248121	1178.252423	231.671699	-2988.699176	1306.101122	196.032459	-3024.511372	1390.151781	16.931069	-3088.167912	1208.978354	-55.615560	-3075.098327	1168.808512	-30.850891	-3110.276780	1147.082658	-73.865960	-3160.930148	1079.324616	-88.994294	-3206.175717	1074.740396	-0.936029	-2987.853250	928.743666	32.455759	-2977.420857	992.841941	66.777122	-2896.013552	964.284634	86.088803	-3018.096558	1385.444285	388.214580	-3116.010406	1286.824698	512.676879	-3105.289903	1239.739018	514.347818	-3150.251198	1241.502843	555.230833	-3201.643078	1155.416355	602.320879	-3262.152566	1151.868114	544.407859	-3090.856222	938.189067	504.060130	-3113.735902	900.888330	568.440842	-3023.078947	893.062304	520.762591	-3206.965079	990.182613	82.954192	-3168.025339	972.363788	325.958414	-3336.774907	1074.210591	242.921044	-3356.120447	1044.377269	219.410306	-3344.640078	1045.391640	274.426920	-3259.743714	685.967685	24.629109	-3207.653866	619.427762	17.129300	-3161.210861	632.830113	12.961291	-3211.045920	563.464816	40.758214	-3189.645949	475.400169	53.012796	-3175.448051	477.736160	178.002450	-3179.393683	309.571671	97.230655	-3244.735991	281.447097	47.390939	-3210.579592	269.083532	71.789074	-3241.846852	196.860538	109.430446	-3349.126239	92.791015	99.589732	-3330.569153	113.028567	186.163485	-3424.136175	58.507660	150.554340	-3210.559722	56.704399	164.276650	-3247.483382	23.690545	64.052017	-3209.810926	51.943779	116.126696	-3157.198433	788.156570	402.064105	-3104.603107	750.905858	390.116599	-3083.223231	762.345465	363.995425	-3101.472032	666.806571	396.275527	-3114.936934	497.814779	357.283614	-3107.398942	488.645816	224.612976	-3299.317073	436.644837	303.706556	-3376.818270	502.307568	346.739353	-3377.913919	459.389527	328.324437	-3427.548704	450.910254	294.874567	-3496.311156	495.799771	324.463798	-3484.762644	498.646257	241.555945	-3550.477501	578.158458	279.594297	-3544.942177	355.770875	247.446222	-3545.529709	357.073367	290.645808	-3579.620368	394.058958	343.685683	
389	1.940000	-2776.978079	1469.896326	159.079514	-2906.634846	1530.756391	146.031588	-2919.052427	1532.171766	272.963620	-3055.118553	1445.438872	209.952602	-3248.475732	1173.750803	230.420426	-2963.615886	1303.326992	197.061168	-2997.843512	1387.690000	17.669548	-3052.346342	1204.140663	-52.364717	-3038.330078	1164.834365	-26.777493	-3071.413988	1141.163147	-70.440377	-3118.776785	1070.748857	-86.092406	-3165.594036	1064.454487	1.250397	-2940.740280	931.593021	39.638811	-2934.765528	996.527308	73.900374	-2852.352359	972.813386	94.631945	-2995.069997	1385.010510	388.699024	-3097.042502	1292.502117	513.939283	-3086.648376	1245.566880	518.220900	-3132.838591	1249.536591	557.543571	-3185.769011	1165.391266	606.743433	-3245.428474	1160.735939	548.421414	-3077.520474	943.580771	516.791675	-3102.829284	908.517115	581.516449	-3011.353178	897.144111	536.141240	-3183.806328	986.478940	80.886062	-3142.639499	968.466879	324.093504	-3312.189085	1070.245235	241.873715	-3331.659495	1040.551215	218.384104	-3319.985571	1041.442968	273.316456	-3245.064514	681.347802	24.551246	-3195.535044	613.029706	17.266078	-3148.831109	624.560150	12.227202	-3200.730891	557.365588	41.214718	-3182.472064	467.851436	53.281831	-3168.153938	469.607125	178.592550	-3175.005726	302.071064	97.913369	-3242.631895	275.482674	49.673738	-3207.896557	262.399958	72.932381	-3240.235592	191.074506	111.457326	-3350.919761	90.955547	101.935683	-3331.619897	110.935922	188.140609	-3425.386486	56.488827	152.213050	-3211.508545	56.538160	164.712870	-3248.455046	24.553276	64.204966	-3211.000728	51.873799	116.486182	-3126.635805	789.962488	402.382395	-3072.081476	755.413684	390.352822	-3051.390206	767.769825	364.218373	-3064.210001	671.783693	397.104865	-3067.701883	503.714184	357.113510	-3059.657459	495.059819	223.918420	-3250.388581	438.923920	304.104112	-3328.932396	503.103309	347.777828	-3329.301286	460.160259	329.368362	-3378.860613	450.578305	296.030809	-3448.016766	493.748638	325.571694	-3437.398135	496.872436	242.636922	-3506.452070	573.859179	280.966891	-3491.199695	351.859455	249.614494	-3491.333340	353.288109	292.777801	-3526.060018	389.107131	346.413931	
390	1.945000	-2752.697434	1469.324443	160.339419	-2882.728249	1529.352256	146.876269	-2895.713417	1530.662889	273.734193	-3031.804804	1442.899106	209.282688	-3223.607092	1169.258646	229.231021	-2938.412753	1300.855493	198.228829	-2970.911579	1385.827055	18.704306	-3016.608609	1200.559805	-49.143929	-3001.589045	1162.112710	-22.904980	-3032.659650	1136.662381	-67.064221	-3076.603486	1063.857682	-83.185997	-3124.624052	1055.725518	3.577874	-2894.109024	936.159250	46.599990	-2892.562492	1001.664510	80.698320	-2809.365485	982.801665	102.683068	-2971.961402	1384.887187	389.231830	-3077.928069	1298.790861	514.971487	-3067.864172	1252.134956	521.979388	-3115.284549	1258.292326	559.537900	-3169.603827	1176.065757	610.772620	-3228.449909	1170.354418	552.087648	-3063.924046	950.167514	528.704394	-3091.553246	917.210119	593.532548	-2999.391451	902.542636	550.527162	-3160.665075	982.488711	78.747029	-3117.182006	964.258375	322.267789	-3287.440941	1066.355980	240.746974	-3307.066131	1036.811028	217.276329	-3295.212796	1037.579024	272.101412	-3230.389551	677.165488	24.630013	-3183.528409	607.129541	17.630960	-3136.604250	616.632597	11.724908	-3190.590925	551.831879	41.926738	-3175.584660	461.158478	53.708332	-3160.946755	462.561027	179.427044	-3170.574363	295.588818	98.709032	-3240.300412	270.546402	51.982800	-3205.042049	256.742350	74.107895	-3238.458302	186.301102	113.353349	-3352.224978	90.113665	103.984893	-3332.305651	109.553771	189.965337	-3426.436778	55.304442	153.882812	-3212.255305	56.595341	165.129793	-3249.326425	25.317707	64.379003	-3212.019738	52.029501	116.844991	-3096.241666	792.230838	402.656339	-3039.903056	760.502644	390.346197	-3019.926562	773.759444	364.234333	-3027.302206	677.578901	397.613532	-3020.977897	510.922863	356.705685	-3012.566507	502.943729	223.103791	-3201.483129	441.302729	304.413794	-3281.397991	503.525505	348.777660	-3280.762694	460.589767	330.390832	-3330.123339	449.631540	297.201324	-3399.933030	490.613815	326.760424	-3390.316231	494.029407	243.749050	-3462.844993	568.010398	282.427346	-3436.976037	346.948686	251.673804	-3436.723397	348.520060	294.773018	-3472.203297	382.948615	349.002198	
391	1.950000	-2728.430008	1469.050055	161.660457	-2858.875719	1528.163653	147.894138	-2872.315800	1529.335786	274.683638	-3008.295355	1440.521610	208.872299	-3198.586163	1164.919391	228.072320	-2913.072942	1298.742312	199.551262	-2943.727377	1384.601843	20.050821	-2981.100265	1198.201732	-46.045658	-2965.010827	1160.598155	-19.315205	-2994.203221	1133.563250	-63.848019	-3034.649683	1058.650121	-80.335757	-3083.518166	1048.651837	5.987589	-2848.161379	942.398427	53.310944	-2850.960844	1008.216039	87.108316	-2767.189351	994.178722	110.182716	-2948.730102	1385.068807	389.816387	-3058.568464	1305.622496	515.728345	-3048.858963	1259.365910	525.514759	-3097.474525	1267.665122	561.133012	-3153.110878	1187.383238	614.357959	-3211.141941	1180.659257	555.301367	-3050.024620	957.789507	539.764820	-3079.851336	926.826658	604.492323	-2987.144157	909.083037	563.876622	-3137.363526	978.202743	76.554816	-3091.659470	959.874783	320.539525	-3262.470722	1062.642416	239.540498	-3282.249072	1033.242157	216.084482	-3270.275540	1033.903684	270.800410	-3215.608700	673.545564	24.861936	-3171.505082	601.864485	18.212359	-3124.419830	609.247008	11.472896	-3180.499525	546.995329	42.844383	-3168.727398	455.484088	54.267796	-3153.572019	456.779247	180.485911	-3166.051335	290.177680	99.576930	-3237.510543	266.708800	54.049293	-3201.895696	252.156407	75.212934	-3236.508272	182.586481	114.929648	-3352.908843	90.207234	105.498397	-3332.617564	108.886533	191.495323	-3427.266929	54.965339	155.404295	-3212.792870	56.755742	165.468105	-3250.063369	25.803865	64.507379	-3212.837279	52.275321	117.151467	-3066.072511	794.987608	402.855117	-3008.130638	766.220533	390.088171	-2988.894326	780.384803	364.033036	-2990.860190	684.213367	397.744239	-2974.982657	519.423989	356.047680	-2966.364997	512.297673	222.184830	-3152.692219	443.822300	304.603915	-3234.282550	503.552574	349.681119	-3232.357418	460.684764	331.321584	-3281.363160	448.096127	298.341567	-3352.055151	486.409811	327.999395	-3343.491880	490.112713	244.864260	-3419.578687	560.585864	283.929775	-3382.261993	341.136828	253.608431	-3381.701312	342.879040	296.633188	-3418.059937	375.672595	351.411784	
